<svg width="17" height="22" viewBox="0 0 17 22" fill="none" xmlns="http://www.w3.org/2000/svg">
<path fill-rule="evenodd" clip-rule="evenodd" d="M0 2.75C0 1.23122 1.26853 0 2.83333 0H6.65833C6.89305 0 7.08333 0.184682 7.08333 0.4125V5.5C7.08333 7.01878 8.35186 8.25 9.91667 8.25H16.575C16.8097 8.25 17 8.43468 17 8.6625V19.25C17 20.7688 15.7315 22 14.1667 22H2.83333C1.26853 22 0 20.7688 0 19.25V2.75ZM3.59882 15.125H11.9845C12.403 15.125 12.75 14.8112 12.75 14.4329C12.75 14.0545 12.403 13.75 11.9845 13.75H3.59882C3.18036 13.75 2.83333 14.0545 2.83333 14.4329C2.83333 14.8112 3.18036 15.125 3.59882 15.125ZM3.48651 11H10.6802C11.0372 11 11.3333 11.3138 11.3333 11.6921C11.3333 12.0705 11.0372 12.375 10.6802 12.375H3.48651C3.12944 12.375 2.83333 12.0705 2.83333 11.6921C2.83333 11.3138 3.12944 11 3.48651 11Z" fill="#202020"/>
<path d="M9.19708 0.563813C8.92026 0.33992 8.5 0.530972 8.5 0.880705V5.5C8.5 6.25939 9.13426 6.875 9.91667 6.875H15.8261C16.2236 6.875 16.4036 6.3926 16.0982 6.14561L9.19708 0.563813Z" fill="#202020"/>
</svg>
